<svg width="45" height="45" viewBox="0 0 45 45" fill="none" xmlns="http://www.w3.org/2000/svg">
<path d="M44.2681 21.4084C43.8003 20.8508 43.1621 20.4884 42.4305 20.353L42.0869 15.689C42.4259 15.6857 42.7149 15.4416 42.774 15.107L42.9065 14.3554C43.0486 13.5498 42.8505 12.7546 42.3629 12.1737C41.876 11.5934 41.1631 11.2738 40.3555 11.2738H35.1828L35.4346 9.84601C35.5061 9.44048 35.4025 9.03557 35.1506 8.73533C34.9012 8.43809 34.5262 8.26758 34.1217 8.26758H8.65934C7.90638 8.26758 7.21327 8.85337 7.08135 9.60141L4.82862 22.3778C4.76112 22.761 5.01697 23.1265 5.40018 23.194C5.44148 23.2012 5.48262 23.2048 5.52331 23.2048C5.85879 23.2048 6.15612 22.9642 6.21633 22.6224L8.46914 9.84601C8.48399 9.76189 8.59228 9.67664 8.65925 9.67664L34.0334 9.67673L31.7939 22.3778C31.7263 22.761 31.9822 23.1265 32.3655 23.194C32.7482 23.2614 33.1141 23.0056 33.1816 22.6224L33.344 21.7014H41.7698C41.77 21.7014 41.7704 21.7014 41.7707 21.7014C41.7711 21.7014 41.7714 21.7014 41.7717 21.7014C42.3541 21.7015 42.8572 21.919 43.1887 22.3139C43.4167 22.5858 43.5498 22.9241 43.5818 23.2985H41.2414C40.8994 23.2985 40.6069 23.5439 40.5475 23.8807L40.2825 25.3838C40.1757 25.9894 40.3265 26.5894 40.6962 27.03C41.0607 27.4646 41.6142 27.7138 42.2144 27.7138H42.8778L42.3311 30.814H40.4709C40.3485 30.1939 40.0805 29.6236 39.6744 29.1398C38.9537 28.2808 37.8933 27.8079 36.6885 27.8079C34.7568 27.8079 32.8931 29.0717 32.0206 30.8141H31.7373L32.6516 25.6286C32.7191 25.2454 32.4634 24.88 32.0801 24.8125C31.6971 24.7448 31.3314 25.0007 31.2639 25.384L30.3064 30.8142H17.2633C17.1409 30.1941 16.8729 29.6239 16.4667 29.1399C15.746 28.281 14.6856 27.808 13.4808 27.808C11.5491 27.808 9.68537 29.0719 8.81288 30.8142L4.77185 30.8142L5.05345 29.2172H8.22006C8.60915 29.2172 8.92468 28.9017 8.92468 28.5126C8.92468 28.1235 8.60924 27.8079 8.22006 27.8079H0.704619C0.315527 27.8079 0 28.1234 0 28.5126C0 28.9017 0.315439 29.2172 0.704619 29.2172H3.62268L3.37087 30.645C3.29941 31.0505 3.40295 31.4554 3.65484 31.7556C3.90428 32.0529 4.27931 32.2234 4.68378 32.2234H8.35532C8.16434 33.4186 8.45139 34.5446 9.16989 35.4007C9.8906 36.2597 10.951 36.7326 12.1558 36.7326C14.5538 36.7326 16.848 34.7858 17.27 32.3926C17.2799 32.3359 17.2877 32.2796 17.2956 32.2233H31.563C31.3719 33.4184 31.659 34.5444 32.3776 35.4006C33.0983 36.2596 34.1587 36.7325 35.3635 36.7325C37.7615 36.7325 40.0557 34.7857 40.4777 32.3925C40.4876 32.3358 40.4954 32.2795 40.5033 32.2232H42.9225C43.2645 32.2232 43.557 31.9777 43.6164 31.6409L44.9416 24.1254C45.1215 23.1053 44.8823 22.1403 44.2681 21.4084ZM33.5927 20.2925L34.4043 15.6892H40.6741L41.0133 20.2925H33.5927ZM41.5187 14.1108L41.4889 14.2801H34.6527L34.9343 12.683H40.3555C40.7393 12.683 41.0689 12.8238 41.2834 13.0795C41.5057 13.3444 41.5894 13.7106 41.5187 14.1108ZM15.8823 32.1481C15.5736 33.8991 13.9018 35.3236 12.1558 35.3236C11.3748 35.3236 10.6977 35.0293 10.2494 34.4951C9.78812 33.9453 9.61233 33.1988 9.75445 32.3929C10.0632 30.6418 11.7349 29.2174 13.4809 29.2174C14.2619 29.2174 14.939 29.5116 15.3874 30.0459C15.8486 30.5955 16.0244 31.3421 15.8823 32.1481ZM39.0899 32.1481C38.7811 33.8991 37.1094 35.3236 35.3634 35.3236C34.5824 35.3236 33.9053 35.0293 33.457 34.495C32.9957 33.9453 32.8199 33.1987 32.9621 32.3928C33.2707 30.6417 34.9425 29.2173 36.6885 29.2173C37.4694 29.2173 38.1466 29.5115 38.595 30.0458C39.0562 30.5955 39.232 31.3421 39.0899 32.1481ZM43.1263 26.305H42.2144V26.3049C42.0264 26.3049 41.8747 26.2425 41.7756 26.1246C41.6729 26.0021 41.6354 25.826 41.6702 25.6289L41.8326 24.708H43.4079L43.1263 26.305Z" fill="black"/>
<path d="M13.9797 31.282C13.7303 30.9847 13.3553 30.8142 12.9507 30.8142C12.1977 30.8142 11.5046 31.4 11.3727 32.148C11.3012 32.5536 11.4048 32.9585 11.6567 33.2587C11.9061 33.556 12.2811 33.7265 12.6856 33.7265C13.4386 33.7265 14.1317 33.1406 14.2636 32.3927C14.3351 31.9871 14.2317 31.5823 13.9797 31.282Z" fill="black"/>
<path d="M37.1876 31.282C36.938 30.9847 36.563 30.8142 36.1586 30.8142C35.4057 30.8142 34.7126 31.4 34.5807 32.148C34.5093 32.5536 34.6126 32.9584 34.8646 33.2587C35.114 33.556 35.4891 33.7265 35.8936 33.7265C36.6465 33.7265 37.3396 33.1406 37.4715 32.3927C37.5431 31.9871 37.4395 31.5823 37.1876 31.282Z" fill="black"/>
<path d="M28.4214 27.808H19.4932C19.1041 27.808 18.7886 28.1234 18.7886 28.5126C18.7886 28.9017 19.104 29.2172 19.4932 29.2172H28.4214C28.8105 29.2172 29.126 28.9018 29.126 28.5126C29.1259 28.1234 28.8105 27.808 28.4214 27.808Z" fill="black"/>
<path d="M15.7356 24.8018H2.73782C2.34873 24.8018 2.0332 25.1172 2.0332 25.5064C2.0332 25.8955 2.34855 26.211 2.73782 26.211H15.7356C16.1247 26.211 16.4402 25.8956 16.4402 25.5064C16.4402 25.1172 16.1248 24.8018 15.7356 24.8018Z" fill="black"/>
<path d="M28.864 22.3453L28.8642 22.3455C28.9123 22.3871 28.9385 22.449 28.9344 22.5133C28.9303 22.5775 28.8965 22.6356 28.8434 22.6706L28.8432 22.6708L25.4395 24.9255L25.4393 24.9256C25.404 24.949 25.3655 24.9596 25.3271 24.9596C25.2592 24.9596 25.195 24.927 25.156 24.8681L25.156 24.868C25.0935 24.7737 25.1194 24.6468 25.2134 24.5846L25.2135 24.5845L26.6668 23.6217L28.0508 22.7049H26.3907H8.97171C8.85871 22.7049 8.76709 22.6133 8.76709 22.5003C8.76709 22.3873 8.85872 22.2957 8.97171 22.2957H26.8375H28.1806L27.1645 21.4174L25.9878 20.4003C25.9022 20.3263 25.8929 20.1972 25.9667 20.1117C26.0406 20.0263 26.1698 20.0168 26.2554 20.0907C26.2554 20.0907 26.2555 20.0907 26.2555 20.0908L28.864 22.3453Z" fill="#57AAF8" stroke="#57AAF8"/>
</svg>
