<svg width="45" height="45" viewBox="0 0 45 45" fill="none" xmlns="http://www.w3.org/2000/svg">
<g clip-path="url(#clip0_33914_38)">
<path d="M10.6574 18.2737C11.1809 18.2737 11.6982 18.2189 12.2058 18.1129L13.5238 21.2947L16.1456 20.2088L14.8278 17.0274C15.7072 16.4533 16.4534 15.7061 17.0273 14.8249L20.2108 16.1436L21.2966 13.5219L18.1132 12.2032C18.3305 11.1743 18.3313 10.1184 18.1152 9.09054L21.2966 7.77272L20.2108 5.15098L17.0304 6.46833C16.4504 5.58003 15.698 4.83401 14.8286 4.26514L16.1456 1.08579L13.5238 0L12.2057 3.18219C11.6982 3.077 11.1748 3.02101 10.6412 3.02101C10.1177 3.02101 9.60044 3.07577 9.09278 3.18181L7.77477 0L5.15302 1.08589L6.47141 4.26874C5.57801 4.85349 4.83596 5.60747 4.27258 6.47031L1.08784 5.15116L0.00195312 7.77281L3.1866 9.09196C2.97481 10.1004 2.96639 11.1583 3.18471 12.2035L0.00195312 13.5219L1.08784 16.1436L4.26823 14.8263C4.84816 15.7146 5.60062 16.4606 6.47 17.0295L5.15302 20.2088L7.77477 21.2947L9.09287 18.1125C9.60044 18.2178 10.1238 18.2737 10.6574 18.2737ZM6.22794 8.81595C6.7182 7.63254 7.63752 6.71171 8.81686 6.22324C9.40086 5.98128 10.0147 5.8587 10.6413 5.8587C12.5899 5.8587 14.3296 7.01912 15.0735 8.81481C15.562 9.99406 15.561 11.2953 15.0708 12.4787C14.5807 13.6622 13.6613 14.583 12.4819 15.0714C11.8979 15.3134 11.284 15.436 10.6575 15.436C8.70884 15.436 6.96915 14.2756 6.22529 12.4799C5.73674 11.3006 5.73768 9.99936 6.22794 8.81595Z" fill="#57AAF8"/>
<path d="M44.0013 16.0868L43.1456 14.2485L36.5244 20.8697L34.0161 18.3614L40.6374 11.7402L38.799 10.8844C37.3924 10.2296 35.8252 9.88354 34.2667 9.88354C31.3993 9.88354 28.7035 11.0002 26.676 13.0278C23.7381 15.9656 22.78 20.3506 24.1498 24.2145L11.2394 37.1262C10.3679 37.9948 9.88716 39.1516 9.88575 40.3833C9.88433 41.6168 10.3633 42.7763 11.235 43.6488C12.1063 44.5202 13.2645 45.0001 14.4961 45.0001C15.7286 45.0001 16.8875 44.5198 17.7587 43.6481L30.6711 30.7352C31.8208 31.1416 33.0467 31.3539 34.2672 31.354C37.1348 31.354 39.8304 30.2374 41.858 28.2098C45.036 25.0318 45.8974 20.16 44.0013 16.0868ZM39.8514 26.2032C38.3597 27.6948 36.3768 28.5163 34.2677 28.5163C33.1193 28.5163 31.9661 28.2617 30.9319 27.7803L30.0318 27.3613L15.7518 41.6418C15.4163 41.9775 14.9704 42.1624 14.4961 42.1624C14.0225 42.1624 13.5769 41.9776 13.2421 41.6428C12.9071 41.3075 12.723 40.8613 12.7235 40.3864C12.724 39.9133 12.9085 39.4692 13.2443 39.1344L27.5242 24.8532L27.1052 23.9532C25.7105 20.9567 26.3444 17.3726 28.6826 15.0343C30.1743 13.5427 32.1574 12.7212 34.2668 12.7212C34.6925 12.7212 35.1188 12.7562 35.5396 12.8248L30.0032 18.3613L36.5244 24.8826L42.0611 19.3458C42.4583 21.8102 41.6708 24.3839 39.8514 26.2032Z" fill="black"/>
</g>
<defs>
<clipPath id="clip0_33914_38">
<rect width="45" height="45" fill="white"/>
</clipPath>
</defs>
</svg>
