<svg width="45" height="32" viewBox="0 0 45 32" fill="none" xmlns="http://www.w3.org/2000/svg">
<path d="M42.75 0.5H2.24997C0.974959 0.5 0 1.47496 0 2.74997V17.75C0 19.025 0.974959 20 2.24997 20H42.75C44.025 20 45 19.025 45 17.75V2.74997C45.0001 1.47496 44.025 0.5 42.75 0.5ZM43.5001 17.75C43.5001 18.2 43.2001 18.5 42.7501 18.5H2.24997C1.79998 18.5 1.50001 18.2 1.50001 17.75V2.74997C1.50001 2.29998 1.87504 2.00001 2.24997 2.00001H42.75C43.2 2.00001 43.5 2.29998 43.5 2.74997V17.75H43.5001Z" fill="black"/>
<path d="M19.5 7.25004H25.5C25.95 7.25004 26.25 6.95008 26.25 6.50008C26.25 6.05009 25.95 5.75012 25.5 5.75012H19.5C19.05 5.75012 18.75 6.05009 18.75 6.50008C18.75 6.95008 19.05 7.25004 19.5 7.25004Z" fill="black"/>
<path d="M41.25 15.5H3.74996C3.29997 15.5 3 15.8 3 16.25C3 16.7 3.29997 16.9999 3.74996 16.9999H41.25C41.7 16.9999 42 16.7 42 16.25C42 15.8 41.7 15.5 41.25 15.5Z" fill="black"/>
<path d="M41.25 12.5H3.74996C3.29997 12.5 3 12.8 3 13.25C3 13.7 3.29997 13.9999 3.74996 13.9999H41.25C41.7 13.9999 42 13.7 42 13.25C42 12.8 41.7 12.5 41.25 12.5Z" fill="black"/>
<path d="M22.875 25.3251C22.125 24.95 21.75 24.5001 21.75 24.125C21.75 23.75 22.2 23.3 22.8 22.85C23.1751 22.7 23.25 22.25 23.1 21.8751C22.95 21.5 22.5 21.3501 22.125 21.5751C20.925 22.2501 20.25 23.1501 20.25 24.1251C20.25 25.1001 20.925 26.0002 22.125 26.7501C22.875 27.1251 23.25 27.5751 23.25 27.9502C23.25 28.3252 22.8 28.7752 22.125 29.1501C21.75 29.3001 21.6001 29.7501 21.8251 30.1251C21.9751 30.3501 22.2001 30.5001 22.5001 30.5001C22.6501 30.5001 22.7251 30.5001 22.8751 30.4251C24.0751 29.7501 24.7501 28.8502 24.7501 27.8751C24.7501 26.9001 24.075 25.9251 22.875 25.3251Z" fill="#57AAF8"/>
<path d="M14.625 26.825C13.875 26.4499 13.5 25.9999 13.5 25.6249C13.5 25.2499 13.95 24.7999 14.55 24.3499C14.9251 24.1999 15.075 23.7499 14.85 23.3749C14.7 22.9999 14.25 22.85 13.875 23.075C12.675 23.75 12 24.6499 12 25.625C12 26.6 12.675 27.5 13.875 28.25C14.625 28.625 15 29.075 15 29.45C15 29.8251 14.55 30.2751 13.875 30.6501C13.5 30.8001 13.3501 31.2501 13.5751 31.625C13.7251 31.85 13.9501 32.0001 14.2501 32.0001C14.4001 32.0001 14.4751 32.0001 14.6251 31.9251C15.8251 31.2501 16.5001 30.3501 16.5001 29.3751C16.5001 28.4 15.825 27.425 14.625 26.825Z" fill="#57AAF8"/>
<path d="M31.125 26.825C30.375 26.4499 30 25.9999 30 25.6249C30 25.2499 30.45 24.7999 31.05 24.3499C31.4251 24.1999 31.5 23.7499 31.35 23.3749C31.2 22.9999 30.75 22.85 30.375 23.075C29.175 23.75 28.5 24.6499 28.5 25.625C28.5 26.6 29.175 27.5 30.375 28.25C31.125 28.625 31.5 29.075 31.5 29.45C31.5 29.8251 31.05 30.2751 30.375 30.6501C30 30.8001 29.8501 31.2501 30.0751 31.625C30.2251 31.85 30.4501 32.0001 30.7501 32.0001C30.9001 32.0001 30.9751 32.0001 31.1251 31.9251C32.3251 31.2501 33.0001 30.3501 33.0001 29.3751C33.0001 28.4 32.325 27.425 31.125 26.825Z" fill="#57AAF8"/>
</svg>
