<svg width="45" height="45" viewBox="0 0 45 45" fill="none" xmlns="http://www.w3.org/2000/svg">
<path fill-rule="evenodd" clip-rule="evenodd" d="M16.2375 8.46742C15.066 10.0805 14.8105 11.8792 15.1231 12.8331C15.2843 13.3251 15.0162 13.8547 14.5241 14.0159C14.0321 14.1772 13.5025 13.9089 13.3413 13.4169C12.7891 11.7315 13.3071 9.31144 14.7204 7.36558C16.1778 5.35897 18.6502 3.75 22.1592 3.75C25.7247 3.75 28.3827 5.2144 30.0116 7.15616C31.606 9.05678 32.262 11.4935 31.6488 13.4106C31.4912 13.9038 30.9634 14.1757 30.4703 14.018C29.9772 13.8602 29.7052 13.3326 29.863 12.8394C30.2285 11.6963 29.8779 9.91425 28.5751 8.3612C27.3068 6.84925 25.1771 5.625 22.1592 5.625C19.2884 5.625 17.3649 6.9151 16.2375 8.46742Z" fill="#57AAF8"/>
<path fill-rule="evenodd" clip-rule="evenodd" d="M17.8125 5.625C18.3303 5.625 18.75 6.04474 18.75 6.5625V10.3125C18.75 10.8303 18.3303 11.25 17.8125 11.25C17.2947 11.25 16.875 10.8303 16.875 10.3125V6.5625C16.875 6.04474 17.2947 5.625 17.8125 5.625Z" fill="#57AAF8"/>
<path fill-rule="evenodd" clip-rule="evenodd" d="M22.5 3.75C23.0178 3.75 23.4375 4.16974 23.4375 4.6875V8.4375C23.4375 8.95526 23.0178 9.375 22.5 9.375C21.9822 9.375 21.5625 8.95526 21.5625 8.4375V4.6875C21.5625 4.16974 21.9822 3.75 22.5 3.75Z" fill="#57AAF8"/>
<path fill-rule="evenodd" clip-rule="evenodd" d="M16.9926 27.7764C16.7785 27.3379 16.2951 27.1009 15.8237 27.2167C10.7573 28.4617 5.625 31.0004 5.625 34.8194V39.375V41.25H7.5H37.5H39.375V39.375V34.8194C39.375 31.0004 34.2427 28.4617 29.1763 27.2167C28.7049 27.1009 28.2215 27.3379 28.0074 27.7764H24.1973C23.3642 27.7766 22.94 27.7766 22.5232 27.7766C22.091 27.7765 21.6667 27.7765 20.8025 27.7767L16.9926 27.7764ZM24.1977 29.6514C24.1975 29.6514 24.1974 29.6514 24.1973 29.6514C23.3589 29.6516 22.9369 29.6516 22.5225 29.6516C22.0929 29.6515 21.6714 29.6515 20.8029 29.6517H20.8024L16.9924 29.6514L15.8211 29.6513L15.6052 29.2091C13.4281 29.7965 11.3745 30.6141 9.85894 31.6166C8.14933 32.7475 7.5 33.8433 7.5 34.8194V39.375H37.5V34.8194C37.5 33.8433 36.8507 32.7475 35.1411 31.6166C33.6255 30.6141 31.5719 29.7965 29.3948 29.2091L29.1789 29.6514H28.0074H24.1977Z" fill="black"/>
<path d="M15 32.8125C15 32.2947 15.4197 31.875 15.9375 31.875C16.4553 31.875 16.875 32.2947 16.875 32.8125V39.375C16.875 39.8928 16.4553 40.3125 15.9375 40.3125C15.4197 40.3125 15 39.8928 15 39.375V32.8125Z" fill="#57AAF8"/>
<path d="M28.125 32.8125C28.125 32.2947 28.5447 31.875 29.0625 31.875C29.5803 31.875 30 32.2947 30 32.8125V39.375C30 39.8928 29.5803 40.3125 29.0625 40.3125C28.5447 40.3125 28.125 39.8928 28.125 39.375V32.8125Z" fill="#57AAF8"/>
<path fill-rule="evenodd" clip-rule="evenodd" d="M27.1875 5.625C27.7053 5.625 28.125 6.04474 28.125 6.5625V10.3125C28.125 10.8303 27.7053 11.25 27.1875 11.25C26.6697 11.25 26.25 10.8303 26.25 10.3125V6.5625C26.25 6.04474 26.6697 5.625 27.1875 5.625Z" fill="#57AAF8"/>
<path fill-rule="evenodd" clip-rule="evenodd" d="M11.7827 14.7789C11.6166 13.5979 12.3135 12.4876 13.4395 11.4868L14.6852 12.8882C13.7017 13.7623 13.6077 14.2928 13.6394 14.5178C13.6726 14.7538 13.9091 15.143 14.7505 15.5704C16.3954 16.4059 19.3784 16.875 22.4998 16.875C25.6212 16.875 28.6042 16.4059 30.2491 15.5704C31.0906 15.143 31.3271 14.7538 31.3603 14.5178C31.3919 14.2928 31.2979 13.7623 30.3145 12.8882L31.5602 11.4868C32.6861 12.4876 33.3832 13.5979 33.217 14.7789C33.0524 15.9493 32.1024 16.732 31.0982 17.2421C29.0516 18.2816 25.7065 18.75 22.4998 18.75C19.2931 18.75 15.948 18.2816 13.9014 17.2421C12.8972 16.732 11.9472 15.9493 11.7827 14.7789Z" fill="#57AAF8"/>
<path fill-rule="evenodd" clip-rule="evenodd" d="M15.9375 16.875C15.9375 20.4994 18.8756 23.4375 22.5 23.4375C26.1244 23.4375 29.0625 20.4994 29.0625 16.875H30.9375C30.9375 21.5349 27.1599 25.3125 22.5 25.3125C17.8401 25.3125 14.0625 21.5349 14.0625 16.875H15.9375Z" fill="black"/>
</svg>
