<svg width="20" height="16" viewBox="0 0 20 16" fill="none" xmlns="http://www.w3.org/2000/svg">
<path d="M10.1838 10.9302C8.9603 10.9302 7.96484 11.9255 7.96484 13.1491C7.96484 14.3727 8.9602 15.3681 10.1838 15.3681C11.4074 15.3681 12.4028 14.3727 12.4028 13.1491C12.4028 11.9255 11.4073 10.9302 10.1838 10.9302ZM10.1838 14.1518C9.63094 14.1518 9.18104 13.702 9.18104 13.149C9.18104 12.5961 9.63084 12.1463 10.1838 12.1463C10.7368 12.1463 11.1866 12.5961 11.1866 13.149C11.1866 13.702 10.7367 14.1518 10.1838 14.1518Z" fill="#57AAF8"/>
<path d="M10.1838 0.631958C6.24393 0.631958 2.4881 2.52629 0.130195 5.70088C-0.0666271 5.9658 -0.041391 6.34607 0.213403 6.55586C0.327624 6.65002 0.46465 6.69532 0.600357 6.69532C0.78674 6.69532 0.97069 6.60988 1.08998 6.44853C3.21833 3.56797 6.61801 1.84816 10.1839 1.84816C13.5595 1.84816 16.786 3.38929 18.9263 5.99722C19.1304 6.24604 19.4953 6.288 19.7541 6.09675C20.0356 5.88868 20.0821 5.48794 19.8597 5.21754C17.4895 2.33504 13.9194 0.631958 10.1838 0.631958Z" fill="#57AAF8"/>
<path d="M10.1836 3.99866C7.06192 3.99866 4.17507 5.56624 2.46124 8.19201C2.27769 8.47326 2.35685 8.85008 2.63809 9.03362C2.91914 9.21727 3.29616 9.13812 3.4797 8.85677C4.96813 6.57639 7.47431 5.21486 10.1836 5.21486C12.8929 5.21486 15.3991 6.57629 16.8875 8.85677C17.0042 9.03545 17.1987 9.13254 17.3973 9.13254C17.5113 9.13254 17.6265 9.10062 17.7291 9.03362C18.0104 8.85008 18.0895 8.47326 17.906 8.19201C16.1921 5.56624 13.3052 3.99866 10.1836 3.99866Z" fill="#57AAF8"/>
<path d="M10.1838 7.1637C7.8863 7.1637 5.74954 8.50172 4.74283 10.567C4.6205 10.8117 4.67695 11.1098 4.88026 11.2928C5.12978 11.5174 5.5143 11.4972 5.7391 11.2476C5.78653 11.1949 5.82302 11.1361 5.84886 11.0742C6.66199 9.43627 8.3596 8.3799 10.1838 8.3799C12.006 8.3799 13.7021 9.43414 14.5188 11.0743C14.5446 11.1362 14.5811 11.1948 14.6285 11.2475C14.7486 11.3809 14.9143 11.4488 15.0807 11.4488C15.2257 11.4488 15.3711 11.3973 15.4873 11.2927C15.689 11.1112 15.7464 10.8164 15.6275 10.5725C14.6181 8.50172 12.4813 7.1637 10.1838 7.1637Z" fill="#57AAF8"/>
</svg>
