<svg width="20" height="20" viewBox="0 0 20 20" fill="none" xmlns="http://www.w3.org/2000/svg">
<g clip-path="url(#clip0_34003_2)">
<path d="M10.1838 12.9302C8.9603 12.9302 7.96484 13.9255 7.96484 15.1491C7.96484 16.3727 8.9602 17.3681 10.1838 17.3681C11.4074 17.3681 12.4028 16.3727 12.4028 15.1491C12.4028 13.9255 11.4073 12.9302 10.1838 12.9302ZM10.1838 16.1518C9.63094 16.1518 9.18104 15.702 9.18104 15.149C9.18104 14.5961 9.63084 14.1463 10.1838 14.1463C10.7368 14.1463 11.1866 14.5961 11.1866 15.149C11.1866 15.702 10.7367 16.1518 10.1838 16.1518Z" fill="#FF4D00"/>
<path d="M10.1838 2.63196C6.24393 2.63196 2.4881 4.52629 0.130195 7.70088C-0.0666271 7.9658 -0.041391 8.34607 0.213403 8.55586C0.327624 8.65002 0.464649 8.69532 0.600357 8.69532C0.78674 8.69532 0.97069 8.60988 1.08998 8.44853C3.21833 5.56797 6.61801 3.84816 10.1839 3.84816C13.5595 3.84816 16.7859 5.38929 18.9263 7.99722C19.1304 8.24604 19.4953 8.288 19.7541 8.09675C20.0356 7.88868 20.0821 7.48794 19.8597 7.21754C17.4895 4.33504 13.9194 2.63196 10.1838 2.63196Z" fill="#FF4D00"/>
<path d="M10.1836 5.99866C7.06192 5.99866 4.17507 7.56624 2.46124 10.192C2.27769 10.4733 2.35685 10.8501 2.63809 11.0336C2.91914 11.2173 3.29616 11.1381 3.4797 10.8568C4.96813 8.57639 7.47431 7.21486 10.1836 7.21486C12.8929 7.21486 15.3991 8.57629 16.8875 10.8568C17.0042 11.0354 17.1987 11.1325 17.3973 11.1325C17.5113 11.1325 17.6265 11.1006 17.7291 11.0336C18.0104 10.8501 18.0895 10.4733 17.906 10.192C16.1921 7.56624 13.3052 5.99866 10.1836 5.99866Z" fill="#FF4D00"/>
<path d="M10.1838 9.1637C7.8863 9.1637 5.74954 10.5017 4.74283 12.567C4.6205 12.8117 4.67695 13.1098 4.88026 13.2928C5.12978 13.5174 5.5143 13.4972 5.7391 13.2476C5.78653 13.1949 5.82302 13.1361 5.84886 13.0742C6.66199 11.4363 8.3596 10.3799 10.1838 10.3799C12.006 10.3799 13.7021 11.4341 14.5188 13.0743C14.5446 13.1362 14.5811 13.1948 14.6285 13.2475C14.7486 13.3809 14.9143 13.4488 15.0807 13.4488C15.2257 13.4488 15.3711 13.3973 15.4873 13.2927C15.689 13.1112 15.7464 12.8163 15.6275 12.5725C14.6181 10.5017 12.4813 9.1637 10.1838 9.1637Z" fill="#FF4D00"/>
</g>
<defs>
<clipPath id="clip0_34003_2">
<rect width="20" height="20" fill="white"/>
</clipPath>
</defs>
</svg>
