<?xml version="1.0" encoding="utf-8"?>
<!-- Generator: Adobe Illustrator 25.4.1, SVG Export Plug-In . SVG Version: 6.00 Build 0)  -->
<svg version="1.1" id="Слой_1" xmlns="http://www.w3.org/2000/svg" xmlns:xlink="http://www.w3.org/1999/xlink" x="0px" y="0px"
	 viewBox="0 0 1149.8 351.8" style="enable-background:new 0 0 1149.8 351.8;" xml:space="preserve">
<style type="text/css">
	.st0{fill:none;}
	.st1{fill:#5ADAE7;}
	.st2{fill:#444444;}
	.st3{enable-background:new    ;}
</style>
<rect x="-18.6" y="43.1" class="st0" width="1139.6" height="280.2"/>
<g>
	<g>
		<path class="st1" d="M308.1,188.1H307c-0.1,0-0.3-0.1-0.5-0.1H302c-0.9,0-1.7,0.7-1.7,1.6c-3.2,51.4-44.8,93.1-97.4,95.2
			c-55.4,2.3-102.2-40.2-105.7-95.2c-0.1-0.9-0.8-1.6-1.7-1.6H91c-0.2,0-0.3,0-0.5,0.1h-1.1c-1,0-1.8,0.9-1.8,1.9
			c3.6,60.4,55,107,115.7,104.5c57.6-2.4,103.2-48.1,106.6-104.5C309.9,188.9,309.1,188.1,308.1,188.1z"/>
		<path class="st1" d="M89.3,178.5h81.2c1.1,0,2.2-0.8,2.4-1.9c0.2-0.8,0.4-1.5,0.7-2.2c0.5-1.5-0.1-3.2-1.4-4.1
			c-1-0.7-2.5-1.6-4.6-3c-2.3-1.5-5.2-1.7-7.7-0.6l-7,3.1c-1.8,0.8-4-0.1-4.7-2c-0.6-1.8,0.3-3.7,2-4.5l5.5-2.5
			c0.5-0.2,0.5-0.9,0.1-1.2l-1.8-1.2c-2.3-1.5-5.2-1.7-7.6-0.6l-13.4,6c-2.3,1-5,0-6-2.3s0-5,2.3-6l10.8-4.8
			c0.5-0.2,0.5-0.9,0.1-1.2l-2.8-1.8c-2.3-1.5-5.2-1.7-7.6-0.6l-4.2,1.9c-1.8,0.8-4-0.1-4.7-2c-0.6-1.8,0.3-3.7,2-4.5l2.7-1.2
			c0.5-0.2,0.5-0.9,0.1-1.2l-3.4-2.2c-1.7-1.1-2.1-3.4-0.9-5c1.1-1.5,3.2-1.8,4.8-0.8l3.3,2.1c0.4,0.3,1,0,1-0.6v-3.1
			c0-2,1.7-3.7,3.7-3.5c1.9,0.1,3.3,1.7,3.3,3.6v4.5c0,2.7,1.4,5.2,3.7,6.7l2.8,1.8c0.4,0.3,1,0,1-0.6l-0.1-11.8
			c0-2.5,2-4.6,4.5-4.6s4.6,2,4.6,4.5V146c0,2.7,1.4,5.2,3.7,6.7l1.8,1.2c0.4,0.3,1,0,1-0.6l-0.1-6.2c0-2,1.7-3.7,3.7-3.5
			c1.9,0.1,3.3,1.7,3.3,3.6l0.1,7.5c0,2.7,1.4,5.2,3.7,6.7c2.1,1.4,3.6,2.3,4.6,3c1.4,0.9,3.2,0.7,4.4-0.4c3.3-3.2,7.5-5.5,12.1-6.6
			c1.6-0.4,2.7-1.8,2.7-3.5c0-1.2,0-2.9,0-5.5c0-2.7-1.4-5.3-3.6-6.8l-6.4-4.2c-1.7-1.1-2.1-3.4-0.9-5.1c1.1-1.5,3.3-1.8,4.8-0.8
			l5.1,3.3c0.4,0.3,1,0,1-0.6v-2.6c0-2.7-1.4-5.3-3.6-6.7l-12.3-8c-2.1-1.4-2.7-4.2-1.3-6.3c1.4-2.1,4.2-2.7,6.3-1.3l9.8,6.4
			c0.5,0.3,1.1,0,1-0.6c-0.2-3.7-0.8-14.7-0.8-20.9c0-2,2.5-3.6,4.6-3.5c1.9,0.1,4.1,1.8,4.1,3.6c0,6.3-0.6,17-0.8,20.8
			c0,0.5,0.6,0.9,1,0.6l9.8-6.4c2.1-1.4,4.9-0.8,6.3,1.3c1.4,2.1,0.8,4.9-1.3,6.3l-12.3,8c-2.3,1.5-3.6,4-3.6,6.7v2.6
			c0,0.5,0.6,0.8,1,0.6l5.2-3.4c1.7-1.1,4-0.6,5,1.2c0.9,1.6,0.3,3.7-1.2,4.7l-6.3,4.1c-2.3,1.5-3.6,4-3.6,6.8c0,2.5,0,4.3,0,5.5
			c0,1.6,1.1,3.1,2.7,3.5c4.6,1.1,8.8,3.4,12.1,6.6c1.2,1.1,3,1.3,4.4,0.4c1-0.7,2.5-1.6,4.6-3c2.3-1.5,3.7-4,3.7-6.7l0.1-7.5
			c0-1.9,1.4-3.5,3.3-3.6c2-0.1,3.7,1.5,3.7,3.5l-0.1,6.2c0,0.5,0.6,0.8,1,0.6l1.8-1.2c2.3-1.5,3.7-4,3.7-6.7l0.1-14.7
			c0-2.5,2.1-4.5,4.6-4.5s4.5,2.1,4.5,4.6l-0.1,11.8c0,0.5,0.6,0.8,1,0.6l2.8-1.8c2.3-1.5,3.7-4,3.7-6.7v-4.5c0-1.9,1.4-3.5,3.3-3.6
			c2-0.1,3.7,1.5,3.7,3.5v3.1c0,0.5,0.6,0.8,1,0.6l3.3-2.1c1.6-1,3.7-0.7,4.8,0.8c1.2,1.6,0.8,4-0.9,5l-3.4,2.2
			c-0.4,0.3-0.4,0.9,0.1,1.2l2.7,1.2c1.7,0.8,2.6,2.7,2,4.5c-0.7,1.9-2.9,2.8-4.7,2l-4.2-1.9c-2.5-1.1-5.4-0.9-7.6,0.6l-2.8,1.8
			c-0.4,0.3-0.4,0.9,0.1,1.2l10.8,4.8c2.3,1,3.3,3.7,2.3,6s-3.7,3.3-6,2.3l-13.4-6c-2.5-1.1-5.4-0.9-7.6,0.6l-1.8,1.2
			c-0.4,0.3-0.4,0.9,0.1,1.2l5.5,2.5c1.7,0.8,2.6,2.7,2,4.5c-0.7,1.9-2.9,2.8-4.7,2l-7-3.1c-2.5-1.1-5.4-0.9-7.7,0.6
			c-2.1,1.4-3.6,2.3-4.6,3c-1.4,0.9-2,2.6-1.4,4.1c0.3,0.7,0.5,1.5,0.7,2.2c0.3,1.1,1.3,1.9,2.4,1.9h81.2c1,0,1.8-0.9,1.8-1.9
			c-3.5-60.5-54.9-107.2-115.7-104.7c-57.7,2.4-103.4,48.2-106.6,104.7C87.5,177.7,88.3,178.5,89.3,178.5z"/>
		<path class="st1" d="M180.6,189.2c2.6,7.9,10.2,13.4,18.9,13c8.1-0.3,14.9-5.7,17.3-13c0.2-0.6-0.2-1.3-0.8-1.3
			c-0.1-0.1-0.2-0.1-0.4-0.1h-33.7c-0.1,0-0.3,0-0.4,0.1C180.8,187.9,180.4,188.6,180.6,189.2z"/>
		<path class="st1" d="M181.4,178.5c0.1,0.1,0.2,0.1,0.4,0.1h33.7c0.1,0,0.3,0,0.4-0.1c0.6-0.1,1-0.7,0.8-1.3
			c-2.6-7.9-10.2-13.4-18.9-13c-8.1,0.3-14.9,5.7-17.3,13C180.4,177.8,180.8,178.4,181.4,178.5z"/>
		<path class="st1" d="M256.2,258.8c5.8-3.6,11.9-9.1,17.2-15.9c5.6-7.1,10.3-15,10-22.3c-0.3-7.9-8.4-20-17.4-27.2
			c-2.2-1.8-4.7-3.5-7.4-4.9c-1-0.6-2.1-0.8-3.3-0.8h-28.8c-0.8,0-1.5,0.6-1.7,1.4c-2.6,12-13.3,21-26.1,21s-23.5-9-26.1-21
			c-0.2-0.8-0.9-1.4-1.7-1.4h-63.8c-1.7,0-2.7,1.9-1.8,3.3l1.3,2.1c4.2,6.7,17.3,13.1,28.6,14.9c10.4,1.6,22.6-0.2,32.9-4.6
			c2.3-1,4.3,1.7,2.8,3.7c-5.1,6.6-11.3,9.9-17.5,12.5c-10.8,4.6-25.5,5-34.7,2.2c-3.1-0.9-5.9,2-4.7,5c2.5,6.3,6.9,13.3,12.6,19.7
			c6,6.7,13,12.7,20.2,13.7c7.8,1.1,21.1-4.8,29.8-12.4c7.9-6.9,14.4-17.4,17.7-28.2c0.7-2.4,4.1-2.2,4.6,0.2
			c1.8,8.1,0.3,15-1.7,21.4c-3.4,11.3-12.5,22.8-20.6,28c-2.7,1.7-2.2,5.8,0.8,6.8c6.5,2.2,14.6,3.2,23.2,3c9-0.3,18.1-1.8,23.5-6.7
			c5.9-5.3,9.9-19.3,9.7-30.8c-0.2-10.5-4.1-22.2-10.2-31.6c-1.3-2.1,0.9-4.6,3.1-3.4c7.4,3.8,11.7,9.5,15.3,15
			c6.4,9.9,9.4,24.2,8.2,33.8C250,258.2,253.5,260.5,256.2,258.8z"/>
		<path class="st1" d="M290.9,199.3c0.9-3.1,1.4-6.5,1.8-10.2c0.1-0.8-0.5-1.4-1.3-1.4h-18.1c-0.7,0-1,0.9-0.4,1.3
			c4.7,3.6,8.7,7.8,11.4,11.5C286,203.1,290,202.3,290.9,199.3z"/>
	</g>
	<g>
		<path class="st2" d="M388.6,166.9c0-6.1-4.2-10.2-14.6-12.5l-10.8-2.4c-16.2-3.5-24.4-11-24.4-23.8c0-14.8,11.3-23.5,29.8-23.5
			c17.9,0,28.6,8.4,30.1,21.7h-12.2c-1.2-6.7-7.8-10.4-17.9-10.4c-10.4,0-17,4-17,12.1c0,7.1,5.5,10.6,16.6,13l10.8,2.4
			c16,3.5,22.4,10.8,22.4,22.8c0,16.4-13.1,24.8-31.3,24.8c-19,0-31.6-8.4-33-23.3h12.4c1.1,7.9,8.6,12,20.6,12
			C381.2,179.9,388.6,175.2,388.6,166.9z"/>
		<path class="st2" d="M500.5,171.8l22.2-65.9h12.8l-28.9,84.3h-12.1l-21.9-64.7l-21.8,64.7h-12L409.9,106h13.4l21.6,65.4l22.2-65.4
			h11.5L500.5,171.8z"/>
		<path class="st2" d="M540.2,158.4h37.1v10.3h-37.1V158.4z"/>
		<path class="st2" d="M633.6,104.6c20.6,0,37.1,12.4,40.3,30.2h-13.2c-2.6-10.3-12.2-18.2-27-18.2c-18,0-31,13.1-31,31.3
			s13,31.3,31,31.3c14.8,0,24.4-7.9,27.1-18.4H674c-3.2,18-19.7,30.4-40.4,30.4c-25.1,0-43.9-19.1-43.9-43.3
			C589.7,123.7,608.5,104.6,633.6,104.6z"/>
		<path class="st2" d="M690.7,190v-84h12.6v72.2h45.5V190H690.7z"/>
		<path class="st2" d="M776,190h-12.7v-84H776V190z"/>
		<path class="st2" d="M809.7,127.6V190h-12.5v-84.1h12.4l32.8,55.1l32.8-55.1h12.2V190h-12.8v-62.3l-27.7,46.9h-9.3L809.7,127.6z"
			/>
		<path class="st2" d="M963.4,169h-41.2l-8.9,21h-12.7l36.8-84.2h11.3l36.7,84.2h-13L963.4,169z M927.2,157.3h31.3l-15.6-37
			L927.2,157.3z"/>
		<path class="st2" d="M1050,117.6h-27.4V190H1010v-72.4h-27.4V106h67.3L1050,117.6L1050,117.6z"/>
	</g>
	<g class="st3">
		<path d="M369.2,265v-30.1h11.3c2.3,0,4.1,0.3,5.5,0.9c1.4,0.6,2.5,1.5,3.3,2.8s1.2,2.6,1.2,4c0,1.3-0.3,2.5-1,3.6
			s-1.8,2.1-3.2,2.7c1.8,0.5,3.2,1.4,4.2,2.7s1.5,2.8,1.5,4.6c0,1.4-0.3,2.7-0.9,3.9c-0.6,1.2-1.3,2.1-2.2,2.8s-2,1.2-3.3,1.5
			s-2.9,0.5-4.9,0.5H369.2z M373.1,247.6h6.5c1.8,0,3-0.1,3.8-0.3c1-0.3,1.8-0.8,2.3-1.5s0.8-1.6,0.8-2.6c0-1-0.2-1.9-0.7-2.6
			c-0.5-0.8-1.2-1.3-2.1-1.6s-2.4-0.4-4.6-0.4h-6V247.6z M373.1,261.5h7.5c1.3,0,2.2,0,2.7-0.1c0.9-0.2,1.7-0.4,2.3-0.8
			s1.1-0.9,1.5-1.7c0.4-0.7,0.6-1.6,0.6-2.5c0-1.1-0.3-2.1-0.9-2.9c-0.6-0.8-1.4-1.4-2.4-1.7s-2.5-0.5-4.4-0.5h-7V261.5z"/>
		<path d="M415.1,262.3c-1.4,1.2-2.7,2-3.9,2.5s-2.6,0.7-4.1,0.7c-2.4,0-4.2-0.6-5.5-1.8c-1.3-1.2-1.9-2.7-1.9-4.5
			c0-1.1,0.2-2,0.7-2.9c0.5-0.9,1.1-1.6,1.9-2.1s1.7-0.9,2.7-1.2c0.7-0.2,1.8-0.4,3.3-0.6c3-0.4,5.2-0.8,6.6-1.3c0-0.5,0-0.8,0-1
			c0-1.5-0.3-2.6-1-3.2c-0.9-0.8-2.3-1.3-4.2-1.3c-1.7,0-3,0.3-3.8,0.9s-1.4,1.7-1.8,3.2l-3.6-0.5c0.3-1.5,0.9-2.8,1.6-3.7
			c0.8-0.9,1.8-1.7,3.3-2.2c1.4-0.5,3.1-0.8,4.9-0.8c1.9,0,3.4,0.2,4.5,0.7s2,1,2.6,1.7c0.5,0.7,0.9,1.5,1.1,2.5
			c0.1,0.6,0.2,1.8,0.2,3.4v4.9c0,3.4,0.1,5.6,0.2,6.5c0.2,0.9,0.5,1.8,0.9,2.6h-3.9C415.4,264.2,415.2,263.3,415.1,262.3z
			 M414.8,254.1c-1.3,0.5-3.3,1-6,1.4c-1.5,0.2-2.6,0.5-3.2,0.7s-1.1,0.7-1.5,1.2s-0.5,1.1-0.5,1.8c0,1,0.4,1.8,1.1,2.5s1.8,1,3.3,1
			c1.4,0,2.7-0.3,3.8-0.9s1.9-1.5,2.4-2.6c0.4-0.8,0.6-2.1,0.6-3.7V254.1z"/>
		<path d="M428.3,243.2h3.7V262h8.4v-18.7h3.7V262h8.4v-18.7h3.7V265h-27.9V243.2z"/>
	</g>
	<g class="st3">
		<path d="M471.2,243.2h3.7v9.4c1.2,0,2-0.2,2.5-0.7s1.2-1.8,2.1-3.9c0.7-1.7,1.3-2.9,1.8-3.4s1-0.9,1.6-1.1s1.5-0.3,2.8-0.3h0.7
			v3.1l-1,0c-1,0-1.6,0.1-1.9,0.4c-0.3,0.3-0.7,1.2-1.3,2.7c-0.6,1.4-1.1,2.4-1.5,3s-1.2,1-2.2,1.5c1.6,0.4,3.1,1.9,4.7,4.4l4,6.7
			h-4.1l-3.9-6.7c-0.8-1.4-1.5-2.2-2.1-2.7c-0.6-0.4-1.3-0.6-2.2-0.6V265h-3.7V243.2z"/>
		<path d="M492.7,254.1c0-4,1.1-7,3.4-9c1.9-1.6,4.2-2.4,6.8-2.4c3,0,5.4,1,7.3,2.9s2.9,4.7,2.9,8.1c0,2.8-0.4,5-1.3,6.6
			c-0.8,1.6-2.1,2.9-3.7,3.7s-3.4,1.3-5.3,1.3c-3,0-5.5-1-7.4-2.9S492.7,257.8,492.7,254.1z M496.5,254.1c0,2.8,0.6,4.9,1.8,6.3
			c1.2,1.4,2.7,2.1,4.6,2.1c1.8,0,3.4-0.7,4.6-2.1s1.8-3.5,1.8-6.4c0-2.7-0.6-4.7-1.8-6.1c-1.2-1.4-2.7-2.1-4.6-2.1
			c-1.8,0-3.4,0.7-4.6,2.1S496.5,251.3,496.5,254.1z"/>
		<path d="M521.5,243.2h5.7l5.7,17.4l6.4-17.4h5.3V265H541v-17.5l-6.4,17.5h-3.3l-6.1-18.4V265h-3.6V243.2z"/>
		<path d="M567,234.9h3.7v10.4c0.8-0.9,1.6-1.5,2.5-2c0.9-0.4,1.9-0.6,3-0.6c2.6,0,4.6,1.1,6.1,3.2c1.5,2.2,2.3,4.9,2.3,8.1
			c0,3.4-0.8,6.2-2.4,8.3c-1.6,2.1-3.7,3.1-6.1,3.1c-0.8,0-1.6-0.1-2.4-0.4s-1.8-0.9-3-2v10.2H567v-10.2c-0.7,0.8-1.6,1.4-2.5,1.8
			s-1.9,0.6-2.9,0.6c-2.3,0-4.3-1-6-3s-2.6-4.9-2.6-8.6c0-3.2,0.8-5.8,2.3-7.9c1.5-2.1,3.6-3.2,6.2-3.2c1.1,0,2.1,0.2,3,0.6
			c0.9,0.4,1.7,1.1,2.4,2V234.9z M556.8,253.8c0,3.1,0.5,5.3,1.5,6.6s2.3,2,3.8,2c1.6,0,2.8-0.7,3.6-2s1.2-3.4,1.2-6.1
			c0-2.9-0.4-5-1.3-6.5s-2.1-2.2-3.8-2.2c-1.5,0-2.8,0.7-3.7,2.1C557.3,249.3,556.8,251.2,556.8,253.8z M570.6,254.2
			c0,3.3,0.5,5.5,1.4,6.6c0.9,1.1,2,1.7,3.4,1.7c1.5,0,2.8-0.7,3.8-2.1c1.1-1.4,1.6-3.5,1.6-6.5c0-2.8-0.5-4.8-1.5-6.2s-2.2-2-3.8-2
			c-1.6,0-2.9,0.7-3.7,2.1S570.6,251.4,570.6,254.2z"/>
		<path d="M591.5,254.1c0-4,1.1-7,3.4-9c1.9-1.6,4.2-2.4,6.8-2.4c3,0,5.4,1,7.3,2.9s2.9,4.7,2.9,8.1c0,2.8-0.4,5-1.3,6.6
			c-0.8,1.6-2.1,2.9-3.7,3.7s-3.4,1.3-5.3,1.3c-3,0-5.5-1-7.4-2.9S591.5,257.8,591.5,254.1z M595.3,254.1c0,2.8,0.6,4.9,1.8,6.3
			c1.2,1.4,2.7,2.1,4.6,2.1c1.8,0,3.4-0.7,4.6-2.1s1.8-3.5,1.8-6.4c0-2.7-0.6-4.7-1.8-6.1c-1.2-1.4-2.7-2.1-4.6-2.1
			c-1.8,0-3.4,0.7-4.6,2.1S595.3,251.3,595.3,254.1z"/>
		<path d="M620.2,273.4v-30.1h3.4v2.8c0.8-1.1,1.7-1.9,2.7-2.5c1-0.6,2.2-0.8,3.6-0.8c1.9,0,3.5,0.5,4.9,1.4s2.5,2.3,3.2,4.1
			c0.7,1.7,1.1,3.7,1.1,5.7c0,2.2-0.4,4.2-1.2,6c-0.8,1.8-2,3.2-3.5,4.1c-1.5,1-3.1,1.4-4.8,1.4c-1.2,0-2.3-0.3-3.3-0.8
			s-1.8-1.2-2.4-2v10.6H620.2z M623.5,254.2c0,2.8,0.6,4.9,1.7,6.2s2.5,2,4.1,2c1.6,0,3-0.7,4.2-2.1c1.2-1.4,1.8-3.5,1.8-6.4
			c0-2.8-0.6-4.9-1.7-6.2s-2.5-2.1-4.1-2.1c-1.6,0-3,0.7-4.2,2.2C624.1,249.3,623.5,251.4,623.5,254.2z"/>
		<path d="M644.6,243.2h17.7v3.1h-7V265h-3.7v-18.7h-7V243.2z"/>
	</g>
	<g class="st3">
		<path d="M678,254h13v3.6h-13V254z"/>
	</g>
	<g class="st3">
		<path d="M715.4,243.2h3.7v9.1h10.2v-9.1h3.7V265h-3.7v-9.7h-10.2v9.7h-3.7V243.2z"/>
		<path d="M756.7,262.3c-1.4,1.2-2.7,2-3.9,2.5c-1.3,0.5-2.6,0.7-4.1,0.7c-2.4,0-4.2-0.6-5.5-1.8c-1.3-1.2-1.9-2.7-1.9-4.5
			c0-1.1,0.2-2,0.7-2.9c0.5-0.9,1.1-1.6,1.9-2.1c0.8-0.5,1.7-0.9,2.7-1.2c0.7-0.2,1.8-0.4,3.3-0.6c3-0.4,5.2-0.8,6.6-1.3
			c0-0.5,0-0.8,0-1c0-1.5-0.3-2.6-1-3.2c-0.9-0.8-2.3-1.3-4.2-1.3c-1.7,0-3,0.3-3.8,0.9c-0.8,0.6-1.4,1.7-1.8,3.2l-3.6-0.5
			c0.3-1.5,0.9-2.8,1.6-3.7c0.8-0.9,1.8-1.7,3.3-2.2c1.4-0.5,3.1-0.8,4.9-0.8c1.9,0,3.4,0.2,4.5,0.7s2,1,2.6,1.7
			c0.5,0.7,0.9,1.5,1.1,2.5c0.1,0.6,0.2,1.8,0.2,3.4v4.9c0,3.4,0.1,5.6,0.2,6.5c0.2,0.9,0.5,1.8,0.9,2.6h-3.9
			C757.1,264.2,756.9,263.3,756.7,262.3z M756.4,254.1c-1.3,0.5-3.3,1-6,1.4c-1.5,0.2-2.6,0.5-3.2,0.7s-1.1,0.7-1.5,1.2
			s-0.5,1.1-0.5,1.8c0,1,0.4,1.8,1.1,2.5c0.7,0.7,1.8,1,3.3,1c1.4,0,2.7-0.3,3.8-0.9s1.9-1.5,2.4-2.6c0.4-0.8,0.6-2.1,0.6-3.7V254.1
			z"/>
		<path d="M770,243.2h3.7V262h8.4v-18.7h3.7V262h8.4v-18.7h3.7V265H770V243.2z"/>
		<path d="M821.8,262.3c-1.4,1.2-2.7,2-3.9,2.5s-2.6,0.7-4.1,0.7c-2.4,0-4.2-0.6-5.5-1.8c-1.3-1.2-1.9-2.7-1.9-4.5
			c0-1.1,0.2-2,0.7-2.9c0.5-0.9,1.1-1.6,1.9-2.1s1.7-0.9,2.7-1.2c0.7-0.2,1.8-0.4,3.3-0.6c3-0.4,5.2-0.8,6.6-1.3c0-0.5,0-0.8,0-1
			c0-1.5-0.3-2.6-1-3.2c-0.9-0.8-2.3-1.3-4.2-1.3c-1.7,0-3,0.3-3.8,0.9s-1.4,1.7-1.8,3.2l-3.6-0.5c0.3-1.5,0.9-2.8,1.6-3.7
			c0.8-0.9,1.8-1.7,3.3-2.2c1.4-0.5,3.1-0.8,4.9-0.8c1.9,0,3.4,0.2,4.5,0.7s2,1,2.6,1.7c0.5,0.7,0.9,1.5,1.1,2.5
			c0.1,0.6,0.2,1.8,0.2,3.4v4.9c0,3.4,0.1,5.6,0.2,6.5c0.2,0.9,0.5,1.8,0.9,2.6h-3.9C822.1,264.2,821.9,263.3,821.8,262.3z
			 M821.5,254.1c-1.3,0.5-3.3,1-6,1.4c-1.5,0.2-2.6,0.5-3.2,0.7s-1.1,0.7-1.5,1.2s-0.5,1.1-0.5,1.8c0,1,0.4,1.8,1.1,2.5s1.8,1,3.3,1
			c1.4,0,2.7-0.3,3.8-0.9s1.9-1.5,2.4-2.6c0.4-0.8,0.6-2.1,0.6-3.7V254.1z"/>
	</g>
	<g class="st3">
		<path d="M847.7,255.2v-2.9c1.6,0,2.6-0.1,3.2-0.2c0.6-0.1,1.1-0.4,1.6-1s0.8-1.2,0.8-2.1c0-1-0.3-1.8-1-2.4
			c-0.7-0.6-1.5-0.9-2.6-0.9c-2.1,0-3.5,1.2-4.4,3.7l-3.5-0.6c1.1-4.1,3.7-6.1,7.9-6.1c2.3,0,4.1,0.6,5.5,1.9c1.3,1.3,2,2.8,2,4.6
			c0,1.8-0.9,3.2-2.6,4.2c1.1,0.6,1.9,1.3,2.5,2.2s0.8,2,0.8,3.2c0,2-0.7,3.5-2.1,4.8s-3.4,1.8-6,1.8c-5,0-7.8-2.2-8.6-6.6l3.5-0.7
			c0.3,1.4,1,2.5,1.9,3.2c1,0.8,2.1,1.1,3.3,1.1s2.3-0.4,3.1-1.1c0.8-0.7,1.2-1.6,1.2-2.7c0-0.8-0.3-1.6-0.8-2.2s-1.1-1-1.7-1.2
			c-0.6-0.2-1.7-0.2-3.2-0.2C848.4,255.1,848.1,255.2,847.7,255.2z"/>
		<path d="M880.3,262.3c-1.4,1.2-2.7,2-3.9,2.5c-1.3,0.5-2.6,0.7-4.1,0.7c-2.4,0-4.2-0.6-5.5-1.8c-1.3-1.2-1.9-2.7-1.9-4.5
			c0-1.1,0.2-2,0.7-2.9c0.5-0.9,1.1-1.6,1.9-2.1c0.8-0.5,1.7-0.9,2.7-1.2c0.7-0.2,1.8-0.4,3.3-0.6c3-0.4,5.2-0.8,6.6-1.3
			c0-0.5,0-0.8,0-1c0-1.5-0.3-2.6-1-3.2c-0.9-0.8-2.3-1.3-4.2-1.3c-1.7,0-3,0.3-3.8,0.9c-0.8,0.6-1.4,1.7-1.8,3.2l-3.6-0.5
			c0.3-1.5,0.9-2.8,1.6-3.7c0.8-0.9,1.8-1.7,3.3-2.2c1.4-0.5,3.1-0.8,4.9-0.8c1.9,0,3.4,0.2,4.5,0.7s2,1,2.6,1.7
			c0.5,0.7,0.9,1.5,1.1,2.5c0.1,0.6,0.2,1.8,0.2,3.4v4.9c0,3.4,0.1,5.6,0.2,6.5c0.2,0.9,0.5,1.8,0.9,2.6H881
			C880.7,264.2,880.4,263.3,880.3,262.3z M880,254.1c-1.3,0.5-3.3,1-6,1.4c-1.5,0.2-2.6,0.5-3.2,0.7s-1.1,0.7-1.5,1.2
			s-0.5,1.1-0.5,1.8c0,1,0.4,1.8,1.1,2.5c0.7,0.7,1.8,1,3.3,1c1.4,0,2.7-0.3,3.8-0.9s1.9-1.5,2.4-2.6c0.4-0.8,0.6-2.1,0.6-3.7V254.1
			z"/>
		<path d="M909.4,234.2l3.3,0c-0.2,1.5-0.5,2.5-1,3.1s-1.1,0.9-1.9,1.1s-2.3,0.2-4.6,0.2c-3,0-5.1,0.3-6.2,0.9s-1.9,1.5-2.4,2.8
			c-0.5,1.3-0.8,3-0.8,5c0.9-1.4,2-2.4,3.3-3.1c1.2-0.7,2.6-1,4.2-1c2.9,0,5.2,1,7.1,2.9s2.8,4.6,2.8,8c0,2.5-0.5,4.6-1.4,6.3
			s-2.1,2.9-3.4,3.8s-3.1,1.3-5.3,1.3c-2.6,0-4.6-0.6-6-1.8s-2.5-2.7-3.3-4.5s-1.1-5.1-1.1-9.6c0-5.8,1-9.6,2.9-11.6s4.9-3,9-3
			c2.5,0,3.9,0,4.3-0.1S909.3,234.5,909.4,234.2z M909.2,254c0-2.3-0.5-4.1-1.6-5.6s-2.6-2.2-4.5-2.2c-2,0-3.6,0.8-4.7,2.3
			s-1.7,3.6-1.7,6.1c0,2.5,0.6,4.5,1.8,5.8s2.7,2,4.5,2c1.8,0,3.3-0.8,4.5-2.3S909.2,256.6,909.2,254z"/>
		<path d="M920.1,254.1c0-4,1.1-7,3.4-9c1.9-1.6,4.2-2.4,6.8-2.4c3,0,5.4,1,7.3,2.9s2.9,4.7,2.9,8.1c0,2.8-0.4,5-1.3,6.6
			c-0.8,1.6-2.1,2.9-3.7,3.7s-3.4,1.3-5.3,1.3c-3,0-5.5-1-7.4-2.9S920.1,257.8,920.1,254.1z M923.9,254.1c0,2.8,0.6,4.9,1.8,6.3
			c1.2,1.4,2.7,2.1,4.6,2.1c1.8,0,3.4-0.7,4.6-2.1s1.8-3.5,1.8-6.4c0-2.7-0.6-4.7-1.8-6.1c-1.2-1.4-2.7-2.1-4.6-2.1
			c-1.8,0-3.4,0.7-4.6,2.1S923.9,251.3,923.9,254.1z"/>
		<path d="M945.9,243.2h17.7v3.1h-7V265h-3.7v-18.7h-7V243.2z"/>
		<path d="M984.9,262.3c-1.4,1.2-2.7,2-3.9,2.5c-1.3,0.5-2.6,0.7-4.1,0.7c-2.4,0-4.2-0.6-5.5-1.8c-1.3-1.2-1.9-2.7-1.9-4.5
			c0-1.1,0.2-2,0.7-2.9c0.5-0.9,1.1-1.6,1.9-2.1c0.8-0.5,1.7-0.9,2.7-1.2c0.7-0.2,1.8-0.4,3.3-0.6c3-0.4,5.2-0.8,6.6-1.3
			c0-0.5,0-0.8,0-1c0-1.5-0.3-2.6-1-3.2c-0.9-0.8-2.3-1.3-4.2-1.3c-1.7,0-3,0.3-3.8,0.9c-0.8,0.6-1.4,1.7-1.8,3.2l-3.6-0.5
			c0.3-1.5,0.9-2.8,1.6-3.7c0.8-0.9,1.8-1.7,3.3-2.2c1.4-0.5,3.1-0.8,4.9-0.8c1.9,0,3.4,0.2,4.5,0.7s2,1,2.6,1.7
			c0.5,0.7,0.9,1.5,1.1,2.5c0.1,0.6,0.2,1.8,0.2,3.4v4.9c0,3.4,0.1,5.6,0.2,6.5c0.2,0.9,0.5,1.8,0.9,2.6h-3.9
			C985.2,264.2,985,263.3,984.9,262.3z M984.6,254.1c-1.3,0.5-3.3,1-6,1.4c-1.5,0.2-2.6,0.5-3.2,0.7s-1.1,0.7-1.5,1.2
			s-0.5,1.1-0.5,1.8c0,1,0.4,1.8,1.1,2.5c0.7,0.7,1.8,1,3.3,1c1.4,0,2.7-0.3,3.8-0.9s1.9-1.5,2.4-2.6c0.4-0.8,0.6-2.1,0.6-3.7V254.1
			z"/>
	</g>
	<g class="st3">
		<path d="M995.5,259.5c1.7,0,2.9,1.3,2.9,2.9s-1.2,2.9-2.9,2.9s-2.9-1.3-2.9-2.9S993.9,259.5,995.5,259.5z M994.1,256.1
			c-0.5-5.1-0.9-11.9-0.9-17.4v-3h4.7v3c0,5.5-0.3,12.3-0.8,17.4H994.1z"/>
	</g>
</g>
</svg>
